<svg viewBox="0 0 45 45" fill="none" xmlns="http://www.w3.org/2000/svg">
<path fill-rule="evenodd" clip-rule="evenodd" d="M20 0.666016H25L23.3333 23.666H21.6667L20 0.666016Z" fill="#7AA0B2"/>
<path fill-rule="evenodd" clip-rule="evenodd" d="M38.3877 7.35132L41.1995 10.8632L22.901 23.9118L21.9637 22.7412L38.3877 7.35132Z" fill="#7AA0B2"/>
<path fill-rule="evenodd" clip-rule="evenodd" d="M44.6561 26.1143L43.651 30.5174L22.2189 23.967L22.5539 22.4993L44.6561 26.1143Z" fill="#7AA0B2"/>
<path fill-rule="evenodd" clip-rule="evenodd" d="M34.1308 42.6026L30.1151 44.5836L21.6606 23.6153L22.9992 22.955L34.1308 42.6026Z" fill="#7AA0B2"/>
<path fill-rule="evenodd" clip-rule="evenodd" d="M14.645 44.5836L10.6293 42.6026L21.7609 22.955L23.0995 23.6153L14.645 44.5836Z" fill="#7AA0B2"/>
<path fill-rule="evenodd" clip-rule="evenodd" d="M1.10938 30.5174L0.104305 26.1143L22.2065 22.4993L22.5415 23.967L1.10938 30.5174Z" fill="#7AA0B2"/>
<path fill-rule="evenodd" clip-rule="evenodd" d="M3.56039 10.8632L6.37216 7.3513L22.7962 22.7412L21.8589 23.9118L3.56039 10.8632Z" fill="#7AA0B2"/>
</svg>
